# xmcd CD database file
#
# Track frame offsets:
#	150
#	17955
#	34619
#	57168
#	74473
#	95802
#	115931
#	133520
#	152841
#	169421
#
# Disc length: 2489 seconds
#
# Revision: 0
# Processed by: cddbd v1.5.1PL0 Copyright (c) Steve Scherf et al.
# Submitted via: CDex 1.51
#
DISCID=8b09b70a
DTITLE=Vital Support - Vital Support
DYEAR=2005
DGENRE=Blues
TTITLE0=Let The Music Be Your Guide
TTITLE1=Payroll Deduction
TTITLE2=What's Left
TTITLE3=Neckbone Johnson
TTITLE4=Them Days
TTITLE5=Phone Keeps Ringing
TTITLE6=Big Fat Frog
TTITLE7=Bad Luck Tour
TTITLE8=Wrong
TTITLE9=To Brunswick
EXTD=YEAR: 2005
EXTT0=
EXTT1=
EXTT2=
EXTT3=
EXTT4=
EXTT5=
EXTT6=
EXTT7=
EXTT8=
EXTT9=
PLAYORDER=
